name D:\school\WTK\thesis\model\3dpredictsim\Results\test_WL_v2\Fal_s1_bCst_PF_Natali2010_ls135_k_nonl500_kmtp_ig24_v4.mot
datacolumns 128
datarows 4
range 1.14153722 1.17578333
endheader
time	pelvis_tilt	pelvis_list	pelvis_rotation	pelvis_tx	pelvis_ty	pelvis_tz	hip_flexion_l	hip_adduction_l	hip_rotation_l	hip_flexion_r	hip_adduction_r	hip_rotation_r	knee_angle_l	knee_angle_r	ankle_angle_l	ankle_angle_r	subtalar_angle_l	subtalar_angle_r	tmt_angle_l	tmt_angle_r	mtp_angle_l	mtp_angle_r	lumbar_extension	lumbar_bending	lumbar_rotation	arm_flex_l	arm_add_l	arm_rot_l	arm_flex_r	arm_add_r	arm_rot_r	elbow_flex_l	elbow_flex_r	pro_sup_l	pro_sup_r	glut_med1_l/activation	glut_med2_l/activation	glut_med3_l/activation	glut_min1_l/activation	glut_min2_l/activation	glut_min3_l/activation	semimem_l/activation	semiten_l/activation	bifemlh_l/activation	bifemsh_l/activation	sar_l/activation	add_long_l/activation	add_brev_l/activation	add_mag1_l/activation	add_mag2_l/activation	add_mag3_l/activation	tfl_l/activation	pect_l/activation	grac_l/activation	glut_max1_l/activation	glut_max2_l/activation	glut_max3_l/activation	iliacus_l/activation	psoas_l/activation	quad_fem_l/activation	gem_l/activation	peri_l/activation	rect_fem_l/activation	vas_med_l/activation	vas_int_l/activation	vas_lat_l/activation	med_gas_l/activation	lat_gas_l/activation	soleus_l/activation	tib_post_l/activation	flex_dig_l/activation	flex_hal_l/activation	tib_ant_l/activation	per_brev_l/activation	per_long_l/activation	per_tert_l/activation	ext_dig_l/activation	ext_hal_l/activation	ercspn_l/activation	intobl_l/activation	extobl_l/activation	glut_med1_r/activation	glut_med2_r/activation	glut_med3_r/activation	glut_min1_r/activation	glut_min2_r/activation	glut_min3_r/activation	semimem_r/activation	semiten_r/activation	bifemlh_r/activation	bifemsh_r/activation	sar_r/activation	add_long_r/activation	add_brev_r/activation	add_mag1_r/activation	add_mag2_r/activation	add_mag3_r/activation	tfl_r/activation	pect_r/activation	grac_r/activation	glut_max1_r/activation	glut_max2_r/activation	glut_max3_r/activation	iliacus_r/activation	psoas_r/activation	quad_fem_r/activation	gem_r/activation	peri_r/activation	rect_fem_r/activation	vas_med_r/activation	vas_int_r/activation	vas_lat_r/activation	med_gas_r/activation	lat_gas_r/activation	soleus_r/activation	tib_post_r/activation	flex_dig_r/activation	flex_hal_r/activation	tib_ant_r/activation	per_brev_r/activation	per_long_r/activation	per_tert_r/activation	ext_dig_r/activation	ext_hal_r/activation	ercspn_r/activation	intobl_r/activation	extobl_r/activation	
          1.14153722	         -2.92941498	         -1.83090009	          5.38233645	          1.42692152	          0.91884041	         -0.00354733	        -17.28539999	         -0.25404616	          6.14350928	         29.24480396	          2.81078759	         -3.57873933	         -5.88784263	         -9.11036650	          0.95918032	          8.46420033	          4.58476037	         -5.10485003	         -0.38076667	         -3.14952195	         22.11952603	         -0.06831987	         -1.83161051	         -0.16093649	         -2.04907967	          4.98782854	        -13.44989645	         15.45870938	         -5.21151427	        -13.46312693	          6.92176011	         33.01453217	         17.26659903	         86.51662706	         86.51662706	          0.27642713	          0.10035267	          0.07205186	          0.29443871	          0.18061560	          0.10818798	          0.05000089	          0.05000025	          0.05000016	          0.05000088	          0.10960069	          0.05583496	          0.05000099	          0.05000064	          0.05000128	          0.05000049	          0.31478026	          0.06108978	          0.05000145	          0.05000160	          0.05000098	          0.05000086	          0.48720354	          0.71434033	          0.05000017	          0.05000053	          0.06876926	          0.29847749	          0.05000038	          0.05000038	          0.05000037	          0.28581868	          0.38809786	          0.31205696	          0.29734353	          0.27708647	          0.36203123	          0.05000004	          0.05951283	          0.09908311	          0.05000041	          0.05000008	          0.05000027	          0.05000001	          0.05000003	          0.05000012	          0.05951278	          0.05951276	          0.05000033	          0.05951282	          0.05951280	          0.05775082	          0.24125155	          0.09243958	          0.15991333	          0.10003796	          0.05000022	          0.14255065	          0.20051208	          0.19777767	          0.19621176	          0.11172843	          0.05000013	          0.05000416	          0.14740597	          0.05085327	          0.05967393	          0.15686398	          0.05000041	          0.05000017	          0.17853579	          0.27232370	          0.12401760	          0.05000012	          0.07898181	          0.07653701	          0.07042099	          0.06562868	          0.06734139	          0.06305519	          0.05000003	          0.05000029	          0.05000024	          0.46682859	          0.23851472	          0.17995419	          0.14362925	          0.50054357	          0.24065313	          0.05951280	          0.12636236	          0.10714312	
          1.15295259	         -2.92971767	         -1.90951471	          5.70741087	          1.44404094	          0.91797039	         -0.00338769	        -17.31207292	         -0.55142015	          5.92352503	         28.71782735	          3.14148463	         -3.33817969	         -7.54895006	         -9.70733428	          0.47612673	          7.80639005	          5.38281188	         -5.35344596	         -1.06334247	         -3.22393037	         23.49257054	         -0.07680781	         -1.62450818	          0.01327576	         -2.11192076	          4.76610542	        -13.45253461	         15.85028685	         -6.14149261	        -13.45627696	          6.80168531	         34.23646137	         16.85551887	         86.51662706	         86.51662706	          0.23224179	          0.08431186	          0.06053479	          0.24737440	          0.15174521	          0.09089475	          0.05000364	          0.05000104	          0.05000109	          0.05000034	          0.09208177	          0.13699921	          0.05017382	          0.05951404	          0.05086996	          0.05951788	          0.26446441	          0.05134234	          0.05002844	          0.05000587	          0.05000390	          0.05001006	          0.40932669	          0.63419321	          0.05000151	          0.05005171	          0.05777714	          0.25076749	          0.14237076	          0.16352448	          0.13769174	          0.24013208	          0.32606251	          0.27688119	          0.27870405	          0.23279657	          0.30425688	          0.05000004	          0.05000020	          0.10958085	          0.05000013	          0.05000004	          0.05000020	          0.05216625	          0.07083556	          0.06225560	          0.05000001	          0.05000004	          0.08819366	          0.05000005	          0.05000006	          0.05000007	          0.20268880	          0.07766363	          0.13435204	          0.08404747	          0.07081183	          0.11976511	          0.28795417	          0.29696586	          0.18436926	          0.09965422	          0.05000044	          0.07634103	          0.12384585	          0.05000095	          0.06643626	          0.14584631	          0.05000084	          0.07083560	          0.53353039	          0.22879427	          0.10419417	          0.07083562	          0.09485493	          0.09671214	          0.08171525	          0.06571964	          0.07083526	          0.06210749	          0.05951293	          0.05139610	          0.05951345	          0.46193940	          0.21302101	          0.21736875	          0.15589869	          0.42053439	          0.20218605	          0.05000001	          0.10616401	          0.09001687	
          1.16436796	         -2.92569346	         -1.99429476	          6.00231394	          1.46150020	          0.91715993	         -0.00324594	        -17.30100450	         -0.85741778	          5.68878674	         28.07963228	          3.37365469	         -3.06675393	         -9.26994980	        -10.45558093	         -0.13201472	          7.20948673	          6.15473081	         -5.61667241	         -1.84776243	         -3.35926631	         24.77499239	         -0.14893365	         -1.39345329	          0.20312156	         -2.16238416	          4.46691222	        -13.45052626	         16.18051363	         -7.11366463	        -13.45710233	          6.73240378	         35.42815928	         16.51632115	         86.51662706	         86.51662706	          0.31152401	          0.07083510	          0.05085870	          0.31177771	          0.12748962	          0.07636576	          0.05000132	          0.05000024	          0.05000020	          0.05000024	          0.07736327	          0.11510072	          0.05000051	          0.05000139	          0.05000137	          0.05000473	          0.22225500	          0.05000166	          0.05000066	          0.05000375	          0.05000232	          0.05000161	          0.34389816	          0.62298470	          0.05000027	          0.05000076	          0.05000025	          0.21068368	          0.15411949	          0.13755558	          0.11583110	          0.20174823	          0.27394315	          0.23262319	          0.23995967	          0.19558549	          0.25562325	          0.05000002	          0.10419064	          0.13061560	          0.05000017	          0.05000004	          0.05000014	          0.05000002	          0.05951287	          0.05230439	          0.20771138	          0.20585656	          0.24983603	          0.31731111	          0.21456759	          0.19471758	          0.17029011	          0.06702442	          0.11287665	          0.08260604	          0.05949320	          0.10062134	          0.24192628	          0.24949753	          0.15489902	          0.11569654	          0.05000047	          0.06413907	          0.10405171	          0.05000050	          0.05581699	          0.12255582	          0.05885061	          0.05951296	          0.44824840	          0.19222282	          0.19577672	          0.05951294	          0.07969292	          0.08125327	          0.06865355	          0.05521473	          0.05951267	          0.05217995	          0.05000020	          0.05000051	          0.05000090	          0.52496618	          0.31374808	          0.18262358	          0.27975327	          0.51870800	          0.16986815	          0.05089846	          0.14030409	          0.07562816	
          1.17578333	         -2.91974066	         -2.07838510	          6.25971380	          1.47908322	          0.91643936	         -0.00307320	        -17.21643219	         -1.16391651	          5.45634033	         27.40194357	          3.57867275	         -2.79522144	        -11.08916428	        -11.16214007	         -0.87293529	          6.68991247	          6.89961784	         -5.88674369	         -2.68141339	         -3.27590371	         25.87432545	         -0.16352321	         -1.16300153	          0.40111386	         -2.20575545	          4.12491934	        -13.45390992	         16.47506952	         -8.07745240	        -13.45814381	          6.70485750	         36.56839150	         16.22589161	         86.51662706	         86.51662706	          0.31480771	          0.05951254	          0.05000008	          0.26208404	          0.10711115	          0.06415915	          0.05000192	          0.05000026	          0.05000020	          0.05000027	          0.06499747	          0.14891450	          0.06993488	          0.05000365	          0.05000326	          0.05000123	          0.18672971	          0.07083658	          0.05000125	          0.05000188	          0.05000126	          0.05000115	          0.28892795	          0.58753697	          0.05000018	          0.05000062	          0.05000018	          0.17700704	          0.16227598	          0.16817340	          0.16023590	          0.16949984	          0.23015479	          0.19543960	          0.20160389	          0.16432230	          0.21476333	          0.05000017	          0.08753677	          0.12398570	          0.05000051	          0.07913019	          0.05000095	          0.06387148	          0.05000007	          0.05000003	          0.30062758	          0.30421275	          0.32428521	          0.26659090	          0.21702819	          0.21593972	          0.14307016	          0.05631141	          0.09483398	          0.06940201	          0.05000086	          0.08453759	          0.20325569	          0.20961682	          0.13013975	          0.14358043	          0.05000075	          0.05388720	          0.08741988	          0.18796865	          0.15041948	          0.14439178	          0.05000011	          0.05000023	          0.37659830	          0.16149710	          0.16448314	          0.05000021	          0.08769515	          0.09310818	          0.07948785	          0.05000006	          0.05000018	          0.05000002	          0.05000016	          0.05000048	          0.05000048	          0.59377278	          0.30854686	          0.19821323	          0.35209421	          0.53508969	          0.28984710	          0.07377013	          0.11787725	          0.06353940	
